<svg xmlns="http://www.w3.org/2000/svg" width="157.4" height="237.542" viewBox="0 0 157.4 237.542"><defs><style>.a{fill:#645d5c;}.b{fill:#fff;}.c{fill:#d9d9d9;}.d{fill:#febe69;}</style></defs><path class="a" d="M138.691,97.455a121.861,121.861,0,0,0-15.733-20.412q-.395,1.128-.814,2.245c10.736,27.119,15.132,48.062,18.425,76.968a105.574,105.574,0,0,1,3.8,10.514c1.11,3.679,2.991,8.211,6.834,8.262,2.22.041,4.172-1.654,5.107-3.668a15.8,15.8,0,0,0,1.079-6.5A125.787,125.787,0,0,0,138.691,97.455Z"/><path class="a" d="M16.857,156.175a107.8,107.8,0,0,0-3.823,10.6c-1.109,3.679-2.99,8.211-6.833,8.262-2.22.041-4.172-1.654-5.108-3.668a15.835,15.835,0,0,1-1.079-6.5A125.674,125.674,0,0,1,34.442,77.042q.377,1.076.774,2.139c-10.678,26.949-15.1,47.787-18.385,76.366"/><path class="b" d="M16.831,155.547c3.288-28.579,7.707-49.417,18.385-76.366C31.2,68.417,28.7,56.886,29.484,45.406A48.783,48.783,0,0,1,42.177,16.2C49.478,8.1,61.8,2.4,78.964,2.4c16.079,0,29.045,5.7,36.346,13.8a48.69,48.69,0,0,1,12.606,29.207c.786,11.519-1.731,23.088-5.772,33.883,10.648,26.9,15.06,47.718,18.343,76.259,1.1,12.077,1.214,18.906.182,29.967-.614,6.578-2.148,14.247-5.212,20.314a28.843,28.843,0,0,1-5.631,7.618c-5.71,5.427-12.461,7.973-20.152,9.584-2.494,1.17-20.478,2.617-25.951,2.614-1.238,0-3.941-.007-5.179-.013s-3.941.012-5.179.013c-5.872,0-26.559-1.945-25.25-2.532-7.853-1.608-14.735-4.148-20.542-9.666a28.862,28.862,0,0,1-5.63-7.618c-3.064-6.067-4.6-13.736-5.212-20.314-1.032-11.061-.92-17.89.181-29.967"/><path class="a" d="M66.332,3.544c-10.716,2.05-18.79,6.7-24.155,12.655A48.783,48.783,0,0,0,29.484,45.406q-.2,2.847-.128,5.7c-.126-7.264,3.521-13.724,6.683-16.02,5.423-3.939,14.75-4.174,21.594,1.273,7.583,6.042,10.23,11.461,11.884,20.625A14.905,14.905,0,0,1,78.7,53.993,15.082,15.082,0,0,1,87.882,57c1.651-9.179,4.3-14.6,11.885-20.649,6.844-5.447,16.171-5.212,21.594-1.273,3.154,2.291,6.792,8.726,6.684,15.969q.06-2.82-.129-5.645A48.69,48.69,0,0,0,115.31,16.2C108.009,8.1,95.043,2.4,78.964,2.4A67.206,67.206,0,0,0,66.332,3.544Z"/><path class="c" d="M44.832,88.633A62.294,62.294,0,0,0,57.91,93.49,84.279,84.279,0,0,0,71.4,95.354a97.925,97.925,0,0,0,25.513-1.3A60.66,60.66,0,0,0,111.63,89.1a2.422,2.422,0,0,0,.861-3.284,2.453,2.453,0,0,0-3.284-.861c-7.689,3.669-15.808,5.116-24.249,5.678a90.738,90.738,0,0,1-23.853-1.337,56.132,56.132,0,0,1-13.851-4.8c-2.755-1.377-5.189,2.762-2.422,4.145Z"/><path class="d" d="M78.7,53.993c-5.062,0-9.97,2.261-12.5,6.881-.867,1.48-1.023,3.659-.079,4.84a4.808,4.808,0,0,0,2.347,1.609,50.975,50.975,0,0,0,10.227.855,49.432,49.432,0,0,0,10.227-.856,4.8,4.8,0,0,0,2.347-1.608c.944-1.181.788-3.36-.079-4.84C88.669,56.254,83.614,53.993,78.7,53.993Z"/><path class="a" d="M99.346,52.155a6.257,6.257,0,0,1,1.547-5.03,4.789,4.789,0,0,1,3.274-1.4,5.129,5.129,0,0,1,4.289,2.011,6.294,6.294,0,0,1-.135,7.342,4.887,4.887,0,0,1-6.588,1.075A5.365,5.365,0,0,1,99.346,52.155Z"/><path class="a" d="M47.879,52.155a6.261,6.261,0,0,1,1.547-5.03,4.781,4.781,0,0,1,3.274-1.4,5.131,5.131,0,0,1,4.29,2.01,6.3,6.3,0,0,1-.135,7.342,4.888,4.888,0,0,1-6.589,1.075A5.365,5.365,0,0,1,47.879,52.155Z"/><path class="d" d="M104.663,224.019l-.01-.072c6.761-1.089,12.886-2.538,18.3-5.5l.534.966c2.775,2.241,4.83,4.275,5.385,8.088a7.2,7.2,0,0,1-.966,5.056c-.761,1.017-3.319,3.319-8.457,4.357a33.6,33.6,0,0,1-11.736.205,22.524,22.524,0,0,1-5.169-2.034A30.6,30.6,0,0,1,92.66,225.2C96.761,224.9,101.282,224.482,104.663,224.019Z"/><path class="d" d="M52.737,224.029c3.319.4,7.882.833,12.013,1.151a30.593,30.593,0,0,1-9.9,9.907,22.421,22.421,0,0,1-5.179,2.034,33.542,33.542,0,0,1-11.726-.205c-5.138-1.038-7.7-3.34-8.457-4.357a7.2,7.2,0,0,1-.966-5.056c.555-3.813,2.6-5.847,5.385-8.088l.534-.966c5.416,2.96,11.54,4.409,18.3,5.5Z"/><path class="a" d="M19.231,155.547c2.382-20.637,6.14-40.991,12.781-60.713q1.3-3.864,2.715-7.691.71-1.926,1.445-3.842c.469-1.222,1.444-2.806,1.444-4.12s-.911-2.9-1.333-4.155q-.708-2.1-1.325-4.237c-.8-2.769-1.478-5.573-2.01-8.406C31,52.005,31.129,41.077,35.322,31.248c3.36-7.875,8.843-15.178,16.2-19.662,7.808-4.755,17.039-6.611,26.092-6.771,9.418-.166,19.069,1.571,27.335,6.252,7.768,4.4,13.4,11.606,16.965,19.717,4.27,9.723,4.5,20.641,2.648,30.965-.51,2.846-1.171,5.664-1.956,8.447s-1.892,5.466-2.7,8.235c-.417,1.429.437,2.805.945,4.122q.829,2.144,1.626,4.3,1.386,3.744,2.669,7.526a284.372,284.372,0,0,1,12.909,60.936,149.79,149.79,0,0,1,.208,30.2c-.948,10-3.547,20.709-11.512,27.467a34.126,34.126,0,0,1-12.417,6.407q-1.638.489-3.3.882c-.651.155-1.366.24-2,.446-.193.063-1.182.362-.153.065-.1.028-.187.077-.286.1-.984.209-1.95.443-2.947.6-1.439.224-2.585.358-4.3.545q-2.751.3-5.51.529c-3.363.285-6.733.532-10.106.65a187.217,187.217,0,0,1-20.143-.339c-8.357-.611-16.1-1.136-24.071-3.765a31.884,31.884,0,0,1-11.077-6.278,28.862,28.862,0,0,1-8.205-12.439c-3.278-9.393-3.908-19.776-3.814-29.658.048-5.07.432-10.129.889-15.176a2.417,2.417,0,0,0-2.4-2.4,2.451,2.451,0,0,0-2.4,2.4,149.305,149.305,0,0,0,.23,33.517,58.819,58.819,0,0,0,4.593,16.867,32.945,32.945,0,0,0,11.158,13c7.8,5.507,17.533,7.043,26.824,8.007,4.378.453,8.772.827,13.17,1.029,3.829.175,7.674.07,11.507.078a173.244,173.244,0,0,0,21.672-1.488c1.634-.2,3.276-.409,4.891-.732a12.328,12.328,0,0,0,1.315-.315c.3-.094.662-.31.94-.372-.408.09.381.02.5-.008.465-.1.929-.211,1.392-.324a43.194,43.194,0,0,0,14.585-6.222A31.94,31.94,0,0,0,138.4,205.174a61.749,61.749,0,0,0,4.378-17.045,139.231,139.231,0,0,0,0-33.515c-1.355-11.624-3.035-23.224-5.53-34.663a255.176,255.176,0,0,0-9.516-32.682q-1.574-4.334-3.274-8.619v1.276c5.506-14.8,8.586-31.867,3.332-47.19A52.141,52.141,0,0,0,116.6,14.058a42.278,42.278,0,0,0-15.027-9.905A59.427,59.427,0,0,0,80.722.026a64.826,64.826,0,0,0-21.49,2.847,45.029,45.029,0,0,0-15.61,8.564,48.365,48.365,0,0,0-11.9,16.18c-6.83,14.7-5.5,31.322-.786,46.463.6,1.931,1.264,3.843,1.968,5.739V78.543a273.2,273.2,0,0,0-16.028,58.683c-.947,6.088-1.737,12.2-2.443,18.321a2.414,2.414,0,0,0,2.4,2.4,2.458,2.458,0,0,0,2.4-2.4Z"/></svg>